<?xml version="1.0" encoding="UTF-8"?>
<svg width="24" height="24" viewBox="0 0 24 24" fill="none" xmlns="http://www.w3.org/2000/svg">
    <defs>
        <linearGradient id="robotGradient" x1="0%" y1="0%" x2="100%" y2="100%">
            <stop offset="0%" style="stop-color:#4F46E5"/>
            <stop offset="100%" style="stop-color:#9333EA"/>
        </linearGradient>
    </defs>
    <path d="M13 9H11V11H13V9Z" fill="url(#robotGradient)"/>
    <path d="M18 8H17V6C17 4.34315 15.6569 3 14 3H10C8.34315 3 7 4.34315 7 6V8H6C4.34315 8 3 9.34315 3 11V15C3 16.6569 4.34315 18 6 18H7V19C7 20.6569 8.34315 22 10 22H14C15.6569 22 17 20.6569 17 19V18H18C19.6569 18 21 16.6569 21 15V11C21 9.34315 19.6569 8 18 8ZM9 6C9 5.44772 9.44772 5 10 5H14C14.5523 5 15 5.44772 15 6V8H9V6ZM15 19C15 19.5523 14.5523 20 14 20H10C9.44772 20 9 19.5523 9 19V16H15V19ZM19 15C19 15.5523 18.5523 16 18 16H17V15C17 14.4477 16.5523 14 16 14H8C7.44772 14 7 14.4477 7 15V16H6C5.44772 16 5 15.5523 5 15V11C5 10.4477 5.44772 10 6 10H18C18.5523 10 19 10.4477 19 11V15Z" fill="url(#robotGradient)"/>
</svg> 